<?xml version="1.0" encoding="utf-8"?>
<svg width="400pt" height="400pt" version="1.1" viewBox="0 0 400 400" xmlns="http://www.w3.org/2000/svg" xmlns:xlink="http://www.w3.org/1999/xlink" xmlns:bx="https://boxy-svg.com">
  <defs>
    <linearGradient id="color-0" bx:pinned="true">
      <stop style="stop-color: #12c2e9;" offset="0"/>
      <stop style="stop-color: #c471ed;" offset="0.5"/>
      <stop style="stop-color: #f64f59;" offset="1"/>
    </linearGradient>
    <linearGradient id="color-0-0" gradientUnits="userSpaceOnUse" x1="200" y1="0" x2="200" y2="400" xlink:href="#color-0"/>
    <clipPath id="a">
      <path d="m139.21 139.21h473.58v473.58h-473.58z"/>
    </clipPath>
  </defs>
  <rect width="400" height="400" style="stroke: rgb(0, 0, 0); stroke-width: 0px; stroke-opacity: 0; fill: url(#color-0-0);"/>
  <path d="M 199.996 0.009 C 89.536 0.009 0 95.631 0 213.596 C 0 278.161 26.865 335.989 69.263 375.153 C 53.948 340.255 61.637 288.911 61.637 288.911 C 61.637 288.911 56.621 288.911 40.13 306.522 C 40.058 306.721 39.327 216.266 101.064 164.157 C 103.932 99.048 157.741 50.007 157.741 50.007 L 183.289 104.555 C 195.815 92.764 205.099 82.521 224.46 72.241 C 236.662 92.145 235.359 149.649 235.359 149.649 C 253.204 162.75 266.312 181.969 272.524 204.127 C 276.519 219.116 284.884 232.353 296.4 241.928 C 318.927 260.936 342.869 278.946 342.869 278.946 C 342.869 278.946 331.388 318.79 294.072 318.79 C 256.762 318.79 210.105 308.078 210.105 308.078 C 210.105 308.078 211.559 363.424 297.597 400 C 358.688 363.445 400 293.687 400 213.587 C 400 95.623 310.456 0 199.991 0 L 199.996 0.009 Z" fill="#fff" style=""/>
  <g clip-path="url(#a)" transform="matrix(0.270282, 0, 0, 0.270282, 234.373886, 234.373901)">
    <path d="m535.21 612.79c-20.719 0-40.211-8.0664-54.863-22.719l-94.82-94.82c-12.121-12.121-16.648-29.879-11.797-46.293l3.0352-10.328-153.11-154.7c-0.80078-0.80078-1.7773-1.4062-2.8555-1.7891l-13.199-4.6016c-12.09-4.2188-22.656-12.402-29.762-23.059l-33.609-50.406c-3.9062-5.8594-3.1367-13.688 1.8516-18.66l41.867-41.867c4.9727-4.9727 12.816-5.7734 18.676-1.8516l50.391 33.594c10.656 7.0898 18.84 17.656 23.059 29.762l4.6484 13.32 1.7461 2.8125 153.23 154.8 9.7383-2.707c16.207-4.4688 33.668 0.10547 45.582 12.016l95.055 95.055c14.652 14.652 22.719 34.141 22.719 54.863 0 42.77-34.809 77.578-77.578 77.578zm-359.62-415.04 26.875 40.297c3.5508 5.3281 8.8359 9.4258 14.875 11.527l13.23 4.6172c5.2969 1.8516 10.168 4.9297 14.117 8.9102l159.27 160.91c3.7891 3.832 5.2109 9.4141 3.6719 14.578l-5.5039 18.723c-1.7773 6.0391-0.11719 12.566 4.3359 17.004l94.82 94.82c9.0586 9.0586 21.117 14.043 33.934 14.043 26.461 0 47.98-21.52 47.98-47.98 0-12.816-4.9883-24.879-14.043-33.934l-95.055-95.055c-4.3672-4.3672-10.773-6.0664-16.754-4.4102l-18.113 5.0156c-5.1641 1.4492-10.699-0.042969-14.473-3.8633l-159.33-160.97c-3.8477-3.9062-6.8359-8.6875-8.6445-13.867l-4.6484-13.32c-2.1172-6.0547-6.2148-11.336-11.527-14.875l-40.312-26.875zm20.289 415.04c-31.258 0-56.668-25.426-56.668-56.652 0-15.141 5.8906-29.363 16.605-40.062l120.93-120.94c5.7852-5.7852 15.141-5.7852 20.926 0 5.7852 5.7852 5.7852 15.141 0 20.926l-120.93 120.94c-5.0469 5.0469-7.9336 12.004-7.9336 19.137 0 14.918 12.137 27.055 27.066 27.055 7.2227 0 14.031-2.8125 19.137-7.918l114.13-114.16c5.7852-5.7852 15.141-5.7852 20.926 0 5.7852 5.7852 5.7852 15.141 0 20.926l-114.15 114.16c-10.699 10.699-24.922 16.59-40.047 16.59zm306.61-251.79c-12.297 0-24.746-2.0586-36.895-6.2617-7.7109-2.6641-11.824-11.098-9.1445-18.809 2.6797-7.7266 11.07-11.84 18.824-9.1445 29.836 10.316 62.07 2.9883 84.18-19.121 13.453-13.453 21.637-30.977 23.398-49.844l-7.7109-7.7109-41.867 41.867c-2.7812 2.7812-6.5273 4.3359-10.465 4.3359s-7.6953-1.5547-10.465-4.3359l-52.316-52.332c-5.7852-5.7852-5.7852-15.141 0-20.926l41.852-41.867-7.7109-7.7109c-18.855 1.7617-36.363 9.9453-49.828 23.414-22.094 22.109-29.422 54.359-19.105 84.18 1.8516 5.3438 0.47266 11.293-3.5234 15.301l-5.6367 5.6367c-5.7852 5.7852-15.141 5.7852-20.926 0-5.5664-5.5664-5.7734-14.488-0.60547-20.289-9.7383-37.988 0.91797-77.785 28.875-105.76 20.336-20.336 47.418-31.832 76.262-32.41 3.3906-0.058594 7.9023 1.4961 10.758 4.3359l22.852 22.852c5.7852 5.7852 5.7852 15.141 0 20.926l-41.867 41.852 31.391 31.406 41.867-41.867c5.7852-5.7852 15.141-5.7852 20.926 0l22.852 22.852c2.8398 2.8398 4.4102 6.7344 4.3359 10.758-0.57812 28.859-12.078 55.941-32.41 76.262-21.164 21.164-49.105 32.41-77.891 32.41zm-59.895 111.19c-8.1836 0-14.801-6.6172-14.801-14.801 0-7.25 5.2227-13.289 12.105-14.547 0.96094-0.71094 2.25-2.0273 2.9453-3.0039 1.2891-6.8516 7.3125-12.031 14.531-12.031 8.1836 0 14.801 6.6172 14.801 14.801 0.015624 13.262-16.309 29.586-29.586 29.586z" fill="#9b9b9b"/>
  </g>
</svg>